<svg xmlns="http://www.w3.org/2000/svg" width="131" height="131" viewBox="0 0 131 131" fill="none">
  <g clip-path="url(#clip0_5_381)">
    <path d="M130.99 65.5C130.99 101.675 101.666 131 65.4905 131C29.3154 131 0 101.666 0 65.5C0 29.3345 29.3249 0 65.5 0C101.675 0 131 29.3249 130.99 65.5Z" fill="url(#paint0_radial_5_381)"/>
    <path d="M33.8695 91.2332L50.3993 46.9504C50.485 46.7218 50.7042 46.5598 50.9614 46.5598H61.5176C61.7653 46.5598 61.994 46.7123 62.0797 46.9504L78.2761 91.2332C78.419 91.6238 78.1332 92.0335 77.714 92.0335H67.7485C67.4912 92.0335 67.2626 91.8715 67.1863 91.6238L63.8423 81.6011H47.8174L44.4733 91.6238C44.3876 91.8715 44.1685 92.0335 43.9112 92.0335H34.4221C34.0029 92.0335 33.717 91.6143 33.8695 91.2332ZM50.2088 73.6268H61.3938L55.868 56.4491L50.2088 73.6268Z" fill="white"/>
    <path d="M83.478 91.2523V47.3411C83.478 46.9123 83.8305 46.5598 84.2592 46.5598H92.9862C93.4149 46.5598 93.7674 46.9123 93.7674 47.3411V91.2523C93.7674 91.681 93.4149 92.0335 92.9862 92.0335H84.2592C83.8305 92.0335 83.478 91.681 83.478 91.2523Z" fill="white"/>
    <path d="M43.492 44.4638C43.492 47.5125 41.0244 49.9801 37.9757 49.9801C34.927 49.9801 32.4594 47.5125 32.4594 44.4638C32.4594 41.4151 34.927 38.9475 37.9757 38.9475C41.0244 38.9475 43.492 41.4151 43.492 44.4638Z" fill="#FF7C66"/>
  </g>
  <defs>
    <radialGradient id="paint0_radial_5_381" cx="0" cy="0" r="1" gradientUnits="userSpaceOnUse" gradientTransform="translate(7.0216 171.405) scale(193.718 193.718)">
      <stop offset="0.18" stop-color="#4B4FE2"/>
      <stop offset="0.52" stop-color="#4A50E1"/>
      <stop offset="0.65" stop-color="#4757DF"/>
      <stop offset="0.74" stop-color="#4363DB"/>
      <stop offset="0.81" stop-color="#3D74D6"/>
      <stop offset="0.87" stop-color="#368ACF"/>
      <stop offset="0.92" stop-color="#2CA4C6"/>
      <stop offset="0.97" stop-color="#22C4BD"/>
    </radialGradient>
    <clipPath id="clip0_5_381">
      <rect width="131" height="131" fill="white"/>
    </clipPath>
  </defs>
</svg>