<svg xmlns="http://www.w3.org/2000/svg" width="34" height="34" viewBox="0 0 34 34" fill="none">
  <g clip-path="url(#clip0_9_956)">
    <path d="M33.9975 17C33.9975 26.3889 26.3865 34 16.9975 34C7.60858 34 0 26.3865 0 17C0 7.61353 7.61105 0 17 0C26.3889 0 34 7.61105 33.9975 17Z" fill="url(#paint0_radial_9_956)"/>
    <path d="M8.79057 23.6789L13.0807 12.1856C13.103 12.1263 13.1599 12.0842 13.2266 12.0842H15.9664C16.0307 12.0842 16.0901 12.1238 16.1123 12.1856L20.3159 23.6789C20.353 23.7802 20.2789 23.8866 20.1701 23.8866H17.5836C17.5168 23.8866 17.4575 23.8445 17.4377 23.7802L16.5698 21.1789H12.4106L11.5427 23.7802C11.5205 23.8445 11.4636 23.8866 11.3968 23.8866H8.93398C8.82518 23.8866 8.751 23.7778 8.79057 23.6789ZM13.0313 19.1092H15.9343L14.5001 14.6509L13.0313 19.1092Z" fill="white"/>
    <path d="M21.666 23.6838V12.287C21.666 12.1757 21.7575 12.0842 21.8688 12.0842H24.1338C24.2451 12.0842 24.3366 12.1757 24.3366 12.287V23.6838C24.3366 23.7951 24.2451 23.8866 24.1338 23.8866H21.8688C21.7575 23.8866 21.666 23.7951 21.666 23.6838Z" fill="white"/>
    <path d="M11.288 11.5402C11.288 12.3315 10.6475 12.9719 9.85627 12.9719C9.065 12.9719 8.42456 12.3315 8.42456 11.5402C8.42456 10.749 9.065 10.1085 9.85627 10.1085C10.6475 10.1085 11.288 10.749 11.288 11.5402Z" fill="#FF7C66"/>
  </g>
  <defs>
    <radialGradient id="paint0_radial_9_956" cx="0" cy="0" r="1" gradientUnits="userSpaceOnUse" gradientTransform="translate(1.8224 44.4868) scale(50.278 50.278)">
      <stop offset="0.18" stop-color="#4B4FE2"/>
      <stop offset="0.52" stop-color="#4A50E1"/>
      <stop offset="0.65" stop-color="#4757DF"/>
      <stop offset="0.74" stop-color="#4363DB"/>
      <stop offset="0.81" stop-color="#3D74D6"/>
      <stop offset="0.87" stop-color="#368ACF"/>
      <stop offset="0.92" stop-color="#2CA4C6"/>
      <stop offset="0.97" stop-color="#22C4BD"/>
    </radialGradient>
    <clipPath id="clip0_9_956">
      <rect width="34" height="34" fill="white"/>
    </clipPath>
  </defs>
</svg>