<svg xmlns="http://www.w3.org/2000/svg" width="16" height="13" viewBox="0 0 16 13" fill="none">
  <path fill-rule="evenodd" clip-rule="evenodd" d="M9.28118 0.48938L14.7927 6.00092C15.1309 6.33914 15.1309 6.8875 14.7927 7.22571L9.28119 12.7373C8.94297 13.0755 8.39461 13.0755 8.0564 12.7373C7.71818 12.399 7.71818 11.8507 8.0564 11.5125L12.9555 6.61332L8.0564 1.71417C7.71818 1.37595 7.71818 0.827596 8.0564 0.48938C8.39461 0.151164 8.94297 0.151164 9.28118 0.48938Z" fill="#FF7C67"/>
  <path fill-rule="evenodd" clip-rule="evenodd" d="M2.35272 0.48938L7.86426 6.00092C8.20248 6.33914 8.20248 6.8875 7.86426 7.22571L2.35272 12.7373C2.0145 13.0755 1.46615 13.0755 1.12793 12.7373C0.789715 12.399 0.789715 11.8507 1.12793 11.5125L6.02708 6.61332L1.12793 1.71417C0.789714 1.37595 0.789714 0.827596 1.12793 0.48938C1.46615 0.151164 2.0145 0.151164 2.35272 0.48938Z" fill="#FF7C67"/>
</svg>