<svg xmlns="http://www.w3.org/2000/svg" width="18" height="15" viewBox="0 0 18 15" fill="none">
  <path d="M13 11.6667L13.4596 11.207L13.2692 11.0167H13V11.6667ZM1.65 4C1.65 2.70213 2.70213 1.65 4 1.65V0.35C1.98416 0.35 0.35 1.98416 0.35 4H1.65ZM1.65 8.66667V4H0.35V8.66667H1.65ZM4 11.0167C2.70213 11.0167 1.65 9.96454 1.65 8.66667H0.35C0.35 10.6825 1.98416 12.3167 4 12.3167V11.0167ZM13 11.0167H4V12.3167H13V11.0167ZM15.7525 13.4999L13.4596 11.207L12.5404 12.1263L14.8333 14.4192L15.7525 13.4999ZM16.35 13.2525C16.35 13.5643 15.973 13.7204 15.7525 13.4999L14.8333 14.4192C15.8727 15.4586 17.65 14.7224 17.65 13.2525H16.35ZM16.35 8.66666V13.2525H17.65V8.66666H16.35ZM16.35 8.452V8.66666H17.65V8.452H16.35ZM16.35 4V8.452H17.65V4H16.35ZM14 1.65C15.2979 1.65 16.35 2.70213 16.35 4H17.65C17.65 1.98416 16.0158 0.35 14 0.35V1.65ZM4 1.65H14V0.35H4V1.65Z" fill="white"/>
</svg>