<svg width="21" height="20" viewBox="0 0 21 20" fill="none" xmlns="http://www.w3.org/2000/svg">
<path d="M14.6826 4.48956L11.6674 2.2505C11.2783 1.87732 10.4029 1.69074 9.81933 1.69074H6.12325C4.95607 1.69074 3.69162 2.53038 3.39982 3.64991L1.06545 10.4604C0.579128 11.7665 1.45452 12.8861 2.9135 12.8861H6.80411C7.3877 12.8861 7.87403 13.3525 7.77676 14.0056L7.29043 16.991C7.0959 17.8307 7.6795 18.7636 8.55488 19.0435C9.33301 19.3234 10.3057 18.9502 10.6947 18.3904L14.6826 12.6995" stroke="#033D58" stroke-width="1.5" stroke-miterlimit="10"/>
<path d="M19.6426 4.48962V13.6324C19.6426 14.9386 19.059 15.405 17.6973 15.405H16.7246C15.3629 15.405 14.7793 14.9386 14.7793 13.6324V4.48962C14.7793 3.1835 15.3629 2.71703 16.7246 2.71703H17.6973C19.059 2.71703 19.6426 3.1835 19.6426 4.48962Z" stroke="#033D58" stroke-width="1.5" stroke-linecap="round" stroke-linejoin="round"/>
</svg>
