<svg width="19" height="19" viewBox="0 0 19 19" fill="none" xmlns="http://www.w3.org/2000/svg">
<path d="M16.1562 9.58496H18.1753" stroke="#033D58" stroke-width="1.5"/>
<path d="M0.731445 9.58496H11.8526" stroke="#033D58" stroke-width="1.5"/>
<path d="M7.49512 3.83606H18.1751" stroke="#033D58" stroke-width="1.5"/>
<path d="M0.731445 3.83606H3.19882" stroke="#033D58" stroke-width="1.5"/>
<path d="M10.5293 15.3337H18.1753" stroke="#033D58" stroke-width="1.5"/>
<path d="M0.731445 15.3337H6.22567" stroke="#033D58" stroke-width="1.5"/>
<path d="M5.3471 5.87669C6.53549 5.87669 7.49888 4.9133 7.49888 3.7249C7.49888 2.53651 6.53549 1.57312 5.3471 1.57312C4.1587 1.57312 3.19531 2.53651 3.19531 3.7249C3.19531 4.9133 4.1587 5.87669 5.3471 5.87669Z" stroke="#033D58" stroke-width="1.5"/>
<path d="M14.0043 11.7367C15.1927 11.7367 16.1561 10.7733 16.1561 9.58489C16.1561 8.39649 15.1927 7.43311 14.0043 7.43311C12.8159 7.43311 11.8525 8.39649 11.8525 9.58489C11.8525 10.7733 12.8159 11.7367 14.0043 11.7367Z" stroke="#033D58" stroke-width="1.5"/>
<path d="M8.37737 17.4856C9.56577 17.4856 10.5292 16.5222 10.5292 15.3338C10.5292 14.1454 9.56577 13.182 8.37737 13.182C7.18897 13.182 6.22559 14.1454 6.22559 15.3338C6.22559 16.5222 7.18897 17.4856 8.37737 17.4856Z" stroke="#033D58" stroke-width="1.5"/>
</svg>
