<svg width="21" height="21" viewBox="0 0 21 21" fill="none" xmlns="http://www.w3.org/2000/svg">
<path d="M14.7773 16.3881L11.7985 18.6943C11.4142 19.0786 10.5493 19.2708 9.9728 19.2708H6.32136C5.16827 19.2708 3.9191 18.406 3.63082 17.2529L1.32465 10.2383C0.844199 8.89305 1.70901 7.73993 3.15037 7.73993H6.99399C7.57054 7.73993 8.05099 7.25948 7.9549 6.58685L7.47444 3.51195C7.28226 2.64713 7.85881 1.68623 8.72362 1.39796C9.49235 1.10969 10.4533 1.49405 10.8376 2.07059L14.7773 7.93211" stroke="#033D58" stroke-width="1.5" stroke-miterlimit="10"/>
<path d="M19.6777 16.3881V6.97123C19.6777 5.62596 19.1012 5.14551 17.7559 5.14551H16.795C15.4498 5.14551 14.8732 5.62596 14.8732 6.97123V16.3881C14.8732 17.7333 15.4498 18.2138 16.795 18.2138H17.7559C19.1012 18.2138 19.6777 17.7333 19.6777 16.3881Z" stroke="#033D58" stroke-width="1.5" stroke-linecap="round" stroke-linejoin="round"/>
</svg>
