<svg xmlns="http://www.w3.org/2000/svg" width="16" height="16" viewBox="0 0 16 16" fill="none">
  <g clip-path="url(#clip0_42_97)">
    <path d="M15.975 10.2475C16.0691 9.91936 15.8809 9.57261 15.5483 9.47974C15.4228 9.44258 15.2974 9.44878 15.1719 9.48593C11.8966 10.5819 8.33892 8.84816 7.22833 5.61596C6.695 4.06178 6.80794 2.36518 7.54833 0.891499C7.69892 0.581902 7.57343 0.216577 7.2597 0.061778C7.14676 0.00605041 7.015 -0.0125254 6.88323 0.00605042C2.44715 0.693357 -0.595983 4.811 0.100488 9.2011C0.721664 13.1206 4.14127 16.0061 8.16323 15.9999C11.7648 15.9813 14.9334 13.6469 15.975 10.2475ZM8.16323 14.7615C4.34833 14.7491 1.26755 11.6965 1.2801 7.93175C1.28637 5.02153 3.16872 2.4333 5.96715 1.49831C5.7601 2.18562 5.65343 2.89769 5.65343 3.61596C5.6597 7.71503 9.02912 11.0401 13.1828 11.0463C13.5781 11.0463 13.9672 11.0153 14.3562 10.9534C13.1828 13.2754 10.7923 14.7491 8.16323 14.7615Z" fill="#FF7C66"/>
  </g>
  <defs>
    <clipPath id="clip0_42_97">
      <rect width="16" height="16" fill="white"/>
    </clipPath>
  </defs>
</svg>