<svg xmlns="http://www.w3.org/2000/svg" width="21" height="21" viewBox="0 0 21 21" fill="none">
  <g clip-path="url(#clip0_24_192)">
    <path d="M10.4966 21C10.1073 21 9.78879 20.6816 9.78879 20.2925V19.0896C9.78879 18.7005 10.1073 18.3821 10.4966 18.3821C10.8859 18.3821 11.2044 18.7005 11.2044 19.0896V20.2925C11.2044 20.6816 10.8859 21 10.4966 21ZM17.4187 18.1344C17.2276 18.1344 17.0507 18.0566 16.9162 17.9292L16.0669 17.0731C15.7908 16.7972 15.7979 16.3443 16.0739 16.0755C16.35 15.8066 16.7959 15.8066 17.0719 16.0755L17.9212 16.9316C18.1973 17.2146 18.1902 17.6675 17.9071 17.9363C17.7726 18.0566 17.6027 18.1274 17.4187 18.1344ZM3.56736 18.1344C3.171 18.1274 2.85957 17.8019 2.86665 17.4127C2.86665 17.2288 2.94451 17.059 3.06483 16.9316L3.91417 16.0755C4.19021 15.7995 4.63611 15.7995 4.91215 16.0755C5.18819 16.3514 5.18819 16.7972 4.91215 17.0731C4.57241 17.3703 3.99911 18.184 3.56736 18.1344ZM10.4966 17.6179C5.61286 17.4269 3.40457 13.7972 3.40457 10.5C3.44703 1.45047 17.0578 0.679245 17.6169 10.5C17.6098 14.434 14.4248 17.6179 10.4966 17.6179ZM10.4966 4.79717C7.40356 4.75472 4.86261 7.23113 4.82014 10.3302C4.82014 10.3868 4.82014 10.4434 4.82014 10.5071C4.85553 17.7028 15.7413 18.4316 16.2013 10.5071C16.2013 7.35142 13.6462 4.79717 10.4966 4.79717ZM20.2923 11.2075H19.0891C18.6998 11.2005 18.3884 10.8821 18.3884 10.4929C18.3955 10.1108 18.6998 9.79953 19.0891 9.79245H20.2923C20.6816 9.79245 21.0001 10.1108 21.0001 10.5C21.0001 10.8892 20.6816 11.2075 20.2923 11.2075ZM1.90406 11.2075H0.700826C0.304466 11.2005 -0.00695957 10.8821 0.000118287 10.4929C0.00719614 10.1108 0.311544 9.79953 0.700826 9.79245H1.90406C2.29334 9.79953 2.60477 10.1179 2.60477 10.5071C2.59769 10.8962 2.28627 11.2005 1.90406 11.2075ZM16.5694 5.13679C16.173 5.12972 15.8616 4.80425 15.8687 4.41509C15.8687 4.23113 15.9465 4.06132 16.0669 3.93396L16.9162 3.07783C17.1922 2.80189 17.6381 2.80189 17.9142 3.07783C18.1902 3.35377 18.1902 3.79953 17.9142 4.07547C17.5744 4.37264 17.0011 5.18632 16.5694 5.13679ZM4.4167 5.13679C4.2256 5.13679 4.04865 5.05896 3.91417 4.9316L3.06483 4.07547C2.78879 3.79953 2.78879 3.35377 3.06483 3.07783C3.34087 2.80189 3.78677 2.80189 4.06281 3.07783L4.91215 3.93396C5.18819 4.21698 5.18111 4.66981 4.89799 4.93868C4.77767 5.05896 4.60072 5.12972 4.4167 5.13679ZM10.4966 2.61792C10.1073 2.61792 9.78879 2.29953 9.78879 1.91038V0.707547C9.78879 0.318396 10.1073 0 10.4966 0C10.8859 0 11.2044 0.318396 11.2044 0.707547V1.91038C11.2044 2.3066 10.8859 2.61792 10.4966 2.61792Z" fill="#706868"/>
  </g>
  <defs>
    <clipPath id="clip0_24_192">
      <rect width="21" height="21" fill="white"/>
    </clipPath>
  </defs>
</svg>