<svg xmlns="http://www.w3.org/2000/svg" width="16" height="16" viewBox="0 0 16 16" fill="none">
<g clip-path="url(#clip0_24_179)">
<path d="M15.975 10.2476C16.0691 9.91939 15.8809 9.57265 15.5483 9.47977C15.4228 9.44261 15.2974 9.44881 15.1719 9.48596C11.8966 10.5819 8.33892 8.84819 7.22833 5.61599C6.695 4.06181 6.80794 2.36521 7.54833 0.89153C7.69892 0.581932 7.57343 0.216607 7.2597 0.0618085C7.14676 0.00608093 7.015 -0.0124949 6.88323 0.00608093C2.44715 0.693387 -0.595983 4.81103 0.100488 9.20113C0.721664 13.1206 4.14127 16.0061 8.16323 15.9999C11.7648 15.9813 14.9334 13.6469 15.975 10.2476ZM8.16323 14.7615C4.34833 14.7491 1.26755 11.6965 1.2801 7.93178C1.28637 5.02156 3.16872 2.43333 5.96715 1.49834C5.7601 2.18565 5.65343 2.89772 5.65343 3.61599C5.6597 7.71506 9.02912 11.0401 13.1828 11.0463C13.5781 11.0463 13.9672 11.0154 14.3562 10.9534C13.1828 13.2754 10.7923 14.7491 8.16323 14.7615Z" fill="white"/>
</g>
<defs>
<clipPath id="clip0_24_179">
<rect width="16" height="16" fill="white"/>
</clipPath>
</defs>
</svg>