<svg xmlns="http://www.w3.org/2000/svg" width="11" height="11" viewBox="0 0 11 11" fill="none">
  <g clip-path="url(#clip0_26_991)">
    <path fill-rule="evenodd" clip-rule="evenodd" d="M7.51022 1.36127L7.11159 0.962634C6.8897 0.740754 6.8897 0.38725 7.11159 0.165369C7.33347 -0.0565111 7.69073 -0.0527504 7.90885 0.165369L10.8347 3.09118C11.0565 3.31306 11.0565 3.66657 10.8347 3.88845C10.6128 4.11033 10.2555 4.10657 10.0374 3.88845L9.63876 3.48981L7.40116 5.72742C7.40116 5.72742 8.37894 8.47272 6.60389 10.2478L6.07364 10.778L3.41483 8.11922L0.646969 10.8871C0.500303 11.0337 0.259619 11.0375 0.112952 10.8908C-0.0337143 10.7442 -0.0337143 10.5072 0.116713 10.3568L2.88458 7.58896L0.225773 4.93016L0.752269 4.39614C2.51979 2.62862 5.27261 3.59887 5.27261 3.59887L7.51022 1.36127ZM5.46817 4.46383C5.46817 4.46383 2.74543 3.46349 1.28253 4.9264L6.06988 9.71375C7.66441 8.11922 6.53244 5.5281 6.53244 5.5281L9.10475 2.9558L8.04047 1.89152L5.46817 4.46383Z" fill="#FF7C66"/>
  </g>
  <defs>
    <clipPath id="clip0_26_991">
      <rect width="11" height="11" fill="white"/>
    </clipPath>
  </defs>
</svg>