<svg
                xmlns="http://www.w3.org/2000/svg"
                width="19"
                height="17"
                viewBox="0 0 19 17"
                fill="none"
              >
                <path
                  fill-rule="evenodd"
                  clip-rule="evenodd"
                  d="M4 0C1.79086 0 0 1.79086 0 4V13C0 15.2091 1.79086 17 4 17H15C17.2091 17 19 15.2091 19 13V4C19 1.79086 17.2091 0 15 0H4ZM5 4.25C4.58579 4.25 4.25 4.58579 4.25 5C4.25 5.41421 4.58579 5.75 5 5.75H14C14.4142 5.75 14.75 5.41421 14.75 5C14.75 4.58579 14.4142 4.25 14 4.25H5ZM5 10.25C4.58579 10.25 4.25 10.5858 4.25 11C4.25 11.4142 4.58579 11.75 5 11.75H11C11.4142 11.75 11.75 11.4142 11.75 11C11.75 10.5858 11.4142 10.25 11 10.25H5Z"
                  fill="#D9D9D9"
                />
              </svg>