<svg xmlns="http://www.w3.org/2000/svg" width="20" height="20" viewBox="0 0 20 20" fill="none">
  <path d="M19.0162 11.9418L17.3763 10.9948C17.5419 10.1017 17.5419 9.18556 17.3763 8.29249L19.0162 7.34552C19.2048 7.23774 19.2895 7.01447 19.2279 6.8066C18.8006 5.4362 18.0731 4.19668 17.1223 3.16502C16.976 3.0072 16.7373 2.9687 16.5525 3.07649L14.9127 4.02345C14.2236 3.43064 13.4306 2.97255 12.5722 2.6723V0.782218C12.5722 0.566649 12.4221 0.378026 12.2104 0.331833C10.7976 0.0161783 9.35023 0.0315761 8.00678 0.331833C7.79506 0.378026 7.64493 0.566649 7.64493 0.782218V2.67615C6.79035 2.98025 5.99737 3.43834 5.30447 4.0273L3.66845 3.08034C3.47983 2.97255 3.24501 3.0072 3.09873 3.16887C2.14792 4.19668 1.42038 5.4362 0.993087 6.81045C0.927647 7.01832 1.01618 7.24159 1.20481 7.34937L2.84467 8.29634C2.67914 9.18941 2.67914 10.1056 2.84467 10.9986L1.20481 11.9456C1.01618 12.0534 0.931496 12.2767 0.993087 12.4845C1.42038 13.8549 2.14792 15.0945 3.09873 16.1261C3.24501 16.2839 3.48368 16.3224 3.66845 16.2146L5.30832 15.2677C5.99737 15.8605 6.79035 16.3186 7.64878 16.6188V18.5128C7.64878 18.7283 7.79891 18.917 8.01063 18.9632C9.42337 19.2788 10.8708 19.2634 12.2142 18.9632C12.4259 18.917 12.5761 18.7283 12.5761 18.5128V16.6188C13.4306 16.3147 14.2236 15.8566 14.9165 15.2677L16.5564 16.2146C16.745 16.3224 16.9798 16.2878 17.1261 16.1261C18.0769 15.0983 18.8045 13.8588 19.2318 12.4845C19.2895 12.2728 19.2048 12.0495 19.0162 11.9418ZM10.1086 12.7232C8.41097 12.7232 7.02902 11.3412 7.02902 9.64364C7.02902 7.94604 8.41097 6.56409 10.1086 6.56409C11.8062 6.56409 13.1881 7.94604 13.1881 9.64364C13.1881 11.3412 11.8062 12.7232 10.1086 12.7232Z" fill="#727084"/>
</svg>