<svg width="17" height="19" viewBox="0 0 17 19" fill="none" xmlns="http://www.w3.org/2000/svg">
<path d="M13.6538 6.1977C15.0763 6.1977 16.2294 5.04454 16.2294 3.62204C16.2294 2.19955 15.0763 1.04639 13.6538 1.04639C12.2313 1.04639 11.0781 2.19955 11.0781 3.62204C11.0781 5.04454 12.2313 6.1977 13.6538 6.1977Z" stroke="#033D58" stroke-width="1.5" stroke-linecap="round" stroke-linejoin="round"/>
<path d="M3.35105 12.2076C4.77354 12.2076 5.9267 11.0544 5.9267 9.63193C5.9267 8.20943 4.77354 7.05627 3.35105 7.05627C1.92855 7.05627 0.775391 8.20943 0.775391 9.63193C0.775391 11.0544 1.92855 12.2076 3.35105 12.2076Z" stroke="#033D58" stroke-width="1.5" stroke-linecap="round" stroke-linejoin="round"/>
<path d="M13.6538 18.2175C15.0763 18.2175 16.2294 17.0643 16.2294 15.6418C16.2294 14.2193 15.0763 13.0662 13.6538 13.0662C12.2313 13.0662 11.0781 14.2193 11.0781 15.6418C11.0781 17.0643 12.2313 18.2175 13.6538 18.2175Z" stroke="#033D58" stroke-width="1.5" stroke-linecap="round" stroke-linejoin="round"/>
<path d="M5.57422 10.9283L11.4381 14.3454" stroke="#033D58" stroke-width="1.5" stroke-linecap="round" stroke-linejoin="round"/>
<path d="M11.4295 4.91846L5.57422 8.33549" stroke="#033D58" stroke-width="1.5" stroke-linecap="round" stroke-linejoin="round"/>
</svg>
